<?xml version="1.0" encoding="UTF-8" standalone="no"?>
<!DOCTYPE svg PUBLIC "-//W3C//DTD SVG 1.1//EN"
 "http://www.w3.org/Graphics/SVG/1.1/DTD/svg11.dtd">
<!-- Generated by graphviz version 2.44.0 ()
 -->
<!-- Pages: 1 -->
<svg width="1628pt" height="548pt"
 viewBox="0.00 0.00 1627.81 548.00" xmlns="http://www.w3.org/2000/svg" xmlns:xlink="http://www.w3.org/1999/xlink">
<g id="graph0" class="graph" transform="scale(1 1) rotate(0) translate(4 544)">
<polygon fill="white" stroke="transparent" points="-4,4 -4,-544 1623.81,-544 1623.81,4 -4,4"/>
<!-- [root] azurerm_lb.vmss (expand) -->
<g id="node1" class="node">
<title>[root] azurerm_lb.vmss (expand)</title>
<polygon fill="none" stroke="black" points="742,-252 613,-252 613,-216 742,-216 742,-252"/>
<text text-anchor="middle" x="677.5" y="-230.3" font-family="Times,serif" font-size="14.00">azurerm_lb.vmss</text>
</g>
<!-- [root] azurerm_public_ip.vmss (expand) -->
<g id="node5" class="node">
<title>[root] azurerm_public_ip.vmss (expand)</title>
<polygon fill="none" stroke="black" points="768.5,-180 586.5,-180 586.5,-144 768.5,-144 768.5,-180"/>
<text text-anchor="middle" x="677.5" y="-158.3" font-family="Times,serif" font-size="14.00">azurerm_public_ip.vmss</text>
</g>
<!-- [root] azurerm_lb.vmss (expand)&#45;&gt;[root] azurerm_public_ip.vmss (expand) -->
<g id="edge1" class="edge">
<title>[root] azurerm_lb.vmss (expand)&#45;&gt;[root] azurerm_public_ip.vmss (expand)</title>
<path fill="none" stroke="black" d="M677.5,-215.7C677.5,-207.98 677.5,-198.71 677.5,-190.11"/>
<polygon fill="black" stroke="black" points="681,-190.1 677.5,-180.1 674,-190.1 681,-190.1"/>
</g>
<!-- [root] azurerm_lb_backend_address_pool.vmss (expand) -->
<g id="node2" class="node">
<title>[root] azurerm_lb_backend_address_pool.vmss (expand)</title>
<polygon fill="none" stroke="black" points="745,-324 458,-324 458,-288 745,-288 745,-324"/>
<text text-anchor="middle" x="601.5" y="-302.3" font-family="Times,serif" font-size="14.00">azurerm_lb_backend_address_pool.vmss</text>
</g>
<!-- [root] azurerm_lb_backend_address_pool.vmss (expand)&#45;&gt;[root] azurerm_lb.vmss (expand) -->
<g id="edge2" class="edge">
<title>[root] azurerm_lb_backend_address_pool.vmss (expand)&#45;&gt;[root] azurerm_lb.vmss (expand)</title>
<path fill="none" stroke="black" d="M620.29,-287.7C629.67,-279.05 641.18,-268.45 651.41,-259.03"/>
<polygon fill="black" stroke="black" points="653.95,-261.45 658.93,-252.1 649.2,-256.3 653.95,-261.45"/>
</g>
<!-- [root] azurerm_lb_probe.vmss (expand) -->
<g id="node3" class="node">
<title>[root] azurerm_lb_probe.vmss (expand)</title>
<polygon fill="none" stroke="black" points="937.5,-324 763.5,-324 763.5,-288 937.5,-288 937.5,-324"/>
<text text-anchor="middle" x="850.5" y="-302.3" font-family="Times,serif" font-size="14.00">azurerm_lb_probe.vmss</text>
</g>
<!-- [root] azurerm_lb_probe.vmss (expand)&#45;&gt;[root] azurerm_lb.vmss (expand) -->
<g id="edge3" class="edge">
<title>[root] azurerm_lb_probe.vmss (expand)&#45;&gt;[root] azurerm_lb.vmss (expand)</title>
<path fill="none" stroke="black" d="M808.18,-287.88C784.32,-278.22 754.33,-266.09 729.1,-255.88"/>
<polygon fill="black" stroke="black" points="730.27,-252.57 719.68,-252.07 727.64,-259.06 730.27,-252.57"/>
</g>
<!-- [root] var.application_port -->
<g id="node13" class="node">
<title>[root] var.application_port</title>
<polygon fill="none" stroke="black" points="928,-252 767,-252 767,-216 934,-216 934,-246 928,-252"/>
<polyline fill="none" stroke="black" points="928,-252 928,-246 "/>
<polyline fill="none" stroke="black" points="934,-246 928,-246 "/>
<text text-anchor="middle" x="850.5" y="-230.3" font-family="Times,serif" font-size="14.00">var.application_port</text>
</g>
<!-- [root] azurerm_lb_probe.vmss (expand)&#45;&gt;[root] var.application_port -->
<g id="edge4" class="edge">
<title>[root] azurerm_lb_probe.vmss (expand)&#45;&gt;[root] var.application_port</title>
<path fill="none" stroke="black" d="M850.5,-287.7C850.5,-279.98 850.5,-270.71 850.5,-262.11"/>
<polygon fill="black" stroke="black" points="854,-262.1 850.5,-252.1 847,-262.1 854,-262.1"/>
</g>
<!-- [root] azurerm_lb_rule.lbnatrule (expand) -->
<g id="node4" class="node">
<title>[root] azurerm_lb_rule.lbnatrule (expand)</title>
<polygon fill="none" stroke="black" points="813.5,-396 609.5,-396 609.5,-360 813.5,-360 813.5,-396"/>
<text text-anchor="middle" x="711.5" y="-374.3" font-family="Times,serif" font-size="14.00">azurerm_lb_rule.lbnatrule</text>
</g>
<!-- [root] azurerm_lb_rule.lbnatrule (expand)&#45;&gt;[root] azurerm_lb_backend_address_pool.vmss (expand) -->
<g id="edge5" class="edge">
<title>[root] azurerm_lb_rule.lbnatrule (expand)&#45;&gt;[root] azurerm_lb_backend_address_pool.vmss (expand)</title>
<path fill="none" stroke="black" d="M684.59,-359.88C670.34,-350.81 652.65,-339.55 637.26,-329.76"/>
<polygon fill="black" stroke="black" points="638.83,-326.61 628.51,-324.19 635.07,-332.51 638.83,-326.61"/>
</g>
<!-- [root] azurerm_lb_rule.lbnatrule (expand)&#45;&gt;[root] azurerm_lb_probe.vmss (expand) -->
<g id="edge6" class="edge">
<title>[root] azurerm_lb_rule.lbnatrule (expand)&#45;&gt;[root] azurerm_lb_probe.vmss (expand)</title>
<path fill="none" stroke="black" d="M745.5,-359.88C764.1,-350.51 787.33,-338.81 807.21,-328.8"/>
<polygon fill="black" stroke="black" points="809.01,-331.81 816.37,-324.19 805.86,-325.56 809.01,-331.81"/>
</g>
<!-- [root] provider[&quot;registry.terraform.io/hashicorp/azurerm&quot;] -->
<g id="node10" class="node">
<title>[root] provider[&quot;registry.terraform.io/hashicorp/azurerm&quot;]</title>
<polygon fill="none" stroke="black" points="673.5,-108 306.51,-90 673.5,-72 1040.49,-90 673.5,-108"/>
<text text-anchor="middle" x="673.5" y="-86.3" font-family="Times,serif" font-size="14.00">provider[&quot;registry.terraform.io/hashicorp/azurerm&quot;]</text>
</g>
<!-- [root] azurerm_public_ip.vmss (expand)&#45;&gt;[root] provider[&quot;registry.terraform.io/hashicorp/azurerm&quot;] -->
<g id="edge7" class="edge">
<title>[root] azurerm_public_ip.vmss (expand)&#45;&gt;[root] provider[&quot;registry.terraform.io/hashicorp/azurerm&quot;]</title>
<path fill="none" stroke="black" d="M676.51,-143.7C676.07,-135.98 675.54,-126.71 675.05,-118.11"/>
<polygon fill="black" stroke="black" points="678.54,-117.89 674.48,-108.1 671.55,-118.29 678.54,-117.89"/>
</g>
<!-- [root] random_string.fqdn (expand) -->
<g id="node12" class="node">
<title>[root] random_string.fqdn (expand)</title>
<polygon fill="none" stroke="black" points="1335.5,-108 1183.5,-108 1183.5,-72 1335.5,-72 1335.5,-108"/>
<text text-anchor="middle" x="1259.5" y="-86.3" font-family="Times,serif" font-size="14.00">random_string.fqdn</text>
</g>
<!-- [root] azurerm_public_ip.vmss (expand)&#45;&gt;[root] random_string.fqdn (expand) -->
<g id="edge8" class="edge">
<title>[root] azurerm_public_ip.vmss (expand)&#45;&gt;[root] random_string.fqdn (expand)</title>
<path fill="none" stroke="black" d="M768.51,-153.8C866.18,-145.51 1026.02,-130.29 1172.99,-108.16"/>
<polygon fill="black" stroke="black" points="1173.74,-111.58 1183.1,-106.62 1172.69,-104.66 1173.74,-111.58"/>
</g>
<!-- [root] var.location -->
<g id="node14" class="node">
<title>[root] var.location</title>
<polygon fill="none" stroke="black" points="1159,-108 1058,-108 1058,-72 1165,-72 1165,-102 1159,-108"/>
<polyline fill="none" stroke="black" points="1159,-108 1159,-102 "/>
<polyline fill="none" stroke="black" points="1165,-102 1159,-102 "/>
<text text-anchor="middle" x="1111.5" y="-86.3" font-family="Times,serif" font-size="14.00">var.location</text>
</g>
<!-- [root] azurerm_public_ip.vmss (expand)&#45;&gt;[root] var.location -->
<g id="edge9" class="edge">
<title>[root] azurerm_public_ip.vmss (expand)&#45;&gt;[root] var.location</title>
<path fill="none" stroke="black" d="M768.64,-151.27C841.85,-142.7 947.42,-128.65 1047.82,-108.22"/>
<polygon fill="black" stroke="black" points="1048.74,-111.61 1057.83,-106.16 1047.33,-104.75 1048.74,-111.61"/>
</g>
<!-- [root] var.resource_group_name -->
<g id="node16" class="node">
<title>[root] var.resource_group_name</title>
<polygon fill="none" stroke="black" points="188,-108 5,-108 5,-72 194,-72 194,-102 188,-108"/>
<polyline fill="none" stroke="black" points="188,-108 188,-102 "/>
<polyline fill="none" stroke="black" points="194,-102 188,-102 "/>
<text text-anchor="middle" x="99.5" y="-86.3" font-family="Times,serif" font-size="14.00">var.resource_group_name</text>
</g>
<!-- [root] azurerm_public_ip.vmss (expand)&#45;&gt;[root] var.resource_group_name -->
<g id="edge10" class="edge">
<title>[root] azurerm_public_ip.vmss (expand)&#45;&gt;[root] var.resource_group_name</title>
<path fill="none" stroke="black" d="M586.36,-148.36C574.63,-146.83 562.79,-145.34 551.5,-144 399.99,-125.97 358.81,-128.58 204.38,-108.21"/>
<polygon fill="black" stroke="black" points="204.42,-104.68 194.04,-106.83 203.49,-111.62 204.42,-104.68"/>
</g>
<!-- [root] var.tags -->
<g id="node17" class="node">
<title>[root] var.tags</title>
<polygon fill="none" stroke="black" points="283,-108 212,-108 212,-72 289,-72 289,-102 283,-108"/>
<polyline fill="none" stroke="black" points="283,-108 283,-102 "/>
<polyline fill="none" stroke="black" points="289,-102 283,-102 "/>
<text text-anchor="middle" x="250.5" y="-86.3" font-family="Times,serif" font-size="14.00">var.tags</text>
</g>
<!-- [root] azurerm_public_ip.vmss (expand)&#45;&gt;[root] var.tags -->
<g id="edge11" class="edge">
<title>[root] azurerm_public_ip.vmss (expand)&#45;&gt;[root] var.tags</title>
<path fill="none" stroke="black" d="M586.25,-148.51C487.69,-134.99 340.01,-114.63 298.88,-107.57"/>
<polygon fill="black" stroke="black" points="299.51,-104.13 289.03,-105.66 298.18,-111 299.51,-104.13"/>
</g>
<!-- [root] azurerm_subnet.vmss (expand) -->
<g id="node6" class="node">
<title>[root] azurerm_subnet.vmss (expand)</title>
<polygon fill="none" stroke="black" points="509,-252 350,-252 350,-216 509,-216 509,-252"/>
<text text-anchor="middle" x="429.5" y="-230.3" font-family="Times,serif" font-size="14.00">azurerm_subnet.vmss</text>
</g>
<!-- [root] azurerm_virtual_network.vmss (expand) -->
<g id="node8" class="node">
<title>[root] azurerm_virtual_network.vmss (expand)</title>
<polygon fill="none" stroke="black" points="543,-180 316,-180 316,-144 543,-144 543,-180"/>
<text text-anchor="middle" x="429.5" y="-158.3" font-family="Times,serif" font-size="14.00">azurerm_virtual_network.vmss</text>
</g>
<!-- [root] azurerm_subnet.vmss (expand)&#45;&gt;[root] azurerm_virtual_network.vmss (expand) -->
<g id="edge12" class="edge">
<title>[root] azurerm_subnet.vmss (expand)&#45;&gt;[root] azurerm_virtual_network.vmss (expand)</title>
<path fill="none" stroke="black" d="M429.5,-215.7C429.5,-207.98 429.5,-198.71 429.5,-190.11"/>
<polygon fill="black" stroke="black" points="433,-190.1 429.5,-180.1 426,-190.1 433,-190.1"/>
</g>
<!-- [root] azurerm_virtual_machine_scale_set.vmss (expand) -->
<g id="node7" class="node">
<title>[root] azurerm_virtual_machine_scale_set.vmss (expand)</title>
<polygon fill="none" stroke="black" points="545.5,-396 243.5,-396 243.5,-360 545.5,-360 545.5,-396"/>
<text text-anchor="middle" x="394.5" y="-374.3" font-family="Times,serif" font-size="14.00">azurerm_virtual_machine_scale_set.vmss</text>
</g>
<!-- [root] azurerm_virtual_machine_scale_set.vmss (expand)&#45;&gt;[root] azurerm_lb_backend_address_pool.vmss (expand) -->
<g id="edge13" class="edge">
<title>[root] azurerm_virtual_machine_scale_set.vmss (expand)&#45;&gt;[root] azurerm_lb_backend_address_pool.vmss (expand)</title>
<path fill="none" stroke="black" d="M444.87,-359.97C473.92,-350.14 510.63,-337.73 541.21,-327.39"/>
<polygon fill="black" stroke="black" points="542.55,-330.63 550.9,-324.11 540.31,-324 542.55,-330.63"/>
</g>
<!-- [root] azurerm_virtual_machine_scale_set.vmss (expand)&#45;&gt;[root] azurerm_subnet.vmss (expand) -->
<g id="edge14" class="edge">
<title>[root] azurerm_virtual_machine_scale_set.vmss (expand)&#45;&gt;[root] azurerm_subnet.vmss (expand)</title>
<path fill="none" stroke="black" d="M400.05,-359.92C403.31,-349.58 407.39,-336.1 410.5,-324 415.78,-303.47 420.74,-280.02 424.27,-262.34"/>
<polygon fill="black" stroke="black" points="427.78,-262.65 426.28,-252.16 420.91,-261.3 427.78,-262.65"/>
</g>
<!-- [root] var.quantity -->
<g id="node15" class="node">
<title>[root] var.quantity</title>
<polygon fill="none" stroke="black" points="101,-324 0,-324 0,-288 107,-288 107,-318 101,-324"/>
<polyline fill="none" stroke="black" points="101,-324 101,-318 "/>
<polyline fill="none" stroke="black" points="107,-318 101,-318 "/>
<text text-anchor="middle" x="53.5" y="-302.3" font-family="Times,serif" font-size="14.00">var.quantity</text>
</g>
<!-- [root] azurerm_virtual_machine_scale_set.vmss (expand)&#45;&gt;[root] var.quantity -->
<g id="edge15" class="edge">
<title>[root] azurerm_virtual_machine_scale_set.vmss (expand)&#45;&gt;[root] var.quantity</title>
<path fill="none" stroke="black" d="M295.38,-359.97C244.74,-350.83 181.99,-338.81 117.06,-324.04"/>
<polygon fill="black" stroke="black" points="117.58,-320.57 107.05,-321.74 116.01,-327.39 117.58,-320.57"/>
</g>
<!-- [root] var.vmss_password -->
<g id="node18" class="node">
<title>[root] var.vmss_password</title>
<polygon fill="none" stroke="black" points="263.5,-324 125.5,-324 125.5,-288 269.5,-288 269.5,-318 263.5,-324"/>
<polyline fill="none" stroke="black" points="263.5,-324 263.5,-318 "/>
<polyline fill="none" stroke="black" points="269.5,-318 263.5,-318 "/>
<text text-anchor="middle" x="197.5" y="-302.3" font-family="Times,serif" font-size="14.00">var.vmss_password</text>
</g>
<!-- [root] azurerm_virtual_machine_scale_set.vmss (expand)&#45;&gt;[root] var.vmss_password -->
<g id="edge16" class="edge">
<title>[root] azurerm_virtual_machine_scale_set.vmss (expand)&#45;&gt;[root] var.vmss_password</title>
<path fill="none" stroke="black" d="M346.56,-359.97C319.03,-350.19 284.28,-337.84 255.26,-327.52"/>
<polygon fill="black" stroke="black" points="256.25,-324.16 245.65,-324.11 253.91,-330.76 256.25,-324.16"/>
</g>
<!-- [root] var.vmss_user -->
<g id="node19" class="node">
<title>[root] var.vmss_user</title>
<polygon fill="none" stroke="black" points="395.5,-324 287.5,-324 287.5,-288 401.5,-288 401.5,-318 395.5,-324"/>
<polyline fill="none" stroke="black" points="395.5,-324 395.5,-318 "/>
<polyline fill="none" stroke="black" points="401.5,-318 395.5,-318 "/>
<text text-anchor="middle" x="344.5" y="-302.3" font-family="Times,serif" font-size="14.00">var.vmss_user</text>
</g>
<!-- [root] azurerm_virtual_machine_scale_set.vmss (expand)&#45;&gt;[root] var.vmss_user -->
<g id="edge17" class="edge">
<title>[root] azurerm_virtual_machine_scale_set.vmss (expand)&#45;&gt;[root] var.vmss_user</title>
<path fill="none" stroke="black" d="M382.14,-359.7C376.27,-351.47 369.13,-341.48 362.66,-332.42"/>
<polygon fill="black" stroke="black" points="365.38,-330.21 356.72,-324.1 359.68,-334.28 365.38,-330.21"/>
</g>
<!-- [root] azurerm_virtual_network.vmss (expand)&#45;&gt;[root] provider[&quot;registry.terraform.io/hashicorp/azurerm&quot;] -->
<g id="edge18" class="edge">
<title>[root] azurerm_virtual_network.vmss (expand)&#45;&gt;[root] provider[&quot;registry.terraform.io/hashicorp/azurerm&quot;]</title>
<path fill="none" stroke="black" d="M488.88,-143.97C526.43,-133.19 574.84,-119.3 612.67,-108.45"/>
<polygon fill="black" stroke="black" points="613.9,-111.74 622.54,-105.62 611.97,-105.01 613.9,-111.74"/>
</g>
<!-- [root] azurerm_virtual_network.vmss (expand)&#45;&gt;[root] var.location -->
<g id="edge19" class="edge">
<title>[root] azurerm_virtual_network.vmss (expand)&#45;&gt;[root] var.location</title>
<path fill="none" stroke="black" d="M543.38,-147.47C554.9,-146.24 566.43,-145.06 577.5,-144 783.66,-124.3 840.45,-143.37 1047.88,-108.1"/>
<polygon fill="black" stroke="black" points="1048.61,-111.53 1057.87,-106.38 1047.42,-104.63 1048.61,-111.53"/>
</g>
<!-- [root] azurerm_virtual_network.vmss (expand)&#45;&gt;[root] var.resource_group_name -->
<g id="edge20" class="edge">
<title>[root] azurerm_virtual_network.vmss (expand)&#45;&gt;[root] var.resource_group_name</title>
<path fill="none" stroke="black" d="M349.19,-143.97C300.99,-133.74 239.56,-120.71 189.69,-110.13"/>
<polygon fill="black" stroke="black" points="190.39,-106.7 179.88,-108.05 188.93,-113.55 190.39,-106.7"/>
</g>
<!-- [root] azurerm_virtual_network.vmss (expand)&#45;&gt;[root] var.tags -->
<g id="edge21" class="edge">
<title>[root] azurerm_virtual_network.vmss (expand)&#45;&gt;[root] var.tags</title>
<path fill="none" stroke="black" d="M385.71,-143.88C359.44,-133.6 325.99,-120.52 298.93,-109.94"/>
<polygon fill="black" stroke="black" points="299.86,-106.54 289.27,-106.16 297.31,-113.06 299.86,-106.54"/>
</g>
<!-- [root] output.vmss_public_ip -->
<g id="node9" class="node">
<title>[root] output.vmss_public_ip</title>
<polygon fill="none" stroke="black" points="1046.5,-396 878.5,-396 878.5,-360 1052.5,-360 1052.5,-390 1046.5,-396"/>
<polyline fill="none" stroke="black" points="1046.5,-396 1046.5,-390 "/>
<polyline fill="none" stroke="black" points="1052.5,-390 1046.5,-390 "/>
<text text-anchor="middle" x="965.5" y="-374.3" font-family="Times,serif" font-size="14.00">output.vmss_public_ip</text>
</g>
<!-- [root] output.vmss_public_ip&#45;&gt;[root] azurerm_public_ip.vmss (expand) -->
<g id="edge25" class="edge">
<title>[root] output.vmss_public_ip&#45;&gt;[root] azurerm_public_ip.vmss (expand)</title>
<path fill="none" stroke="black" d="M968.94,-359.75C974.37,-327.03 980.81,-255.65 943.5,-216 920.98,-192.07 843.94,-178.47 778.52,-171.06"/>
<polygon fill="black" stroke="black" points="778.87,-167.58 768.55,-169.97 778.11,-174.54 778.87,-167.58"/>
</g>
<!-- [root] provider[&quot;registry.terraform.io/hashicorp/random&quot;] -->
<g id="node11" class="node">
<title>[root] provider[&quot;registry.terraform.io/hashicorp/random&quot;]</title>
<polygon fill="none" stroke="black" points="1259.5,-36 899.38,-18 1259.5,0 1619.62,-18 1259.5,-36"/>
<text text-anchor="middle" x="1259.5" y="-14.3" font-family="Times,serif" font-size="14.00">provider[&quot;registry.terraform.io/hashicorp/random&quot;]</text>
</g>
<!-- [root] random_string.fqdn (expand)&#45;&gt;[root] provider[&quot;registry.terraform.io/hashicorp/random&quot;] -->
<g id="edge29" class="edge">
<title>[root] random_string.fqdn (expand)&#45;&gt;[root] provider[&quot;registry.terraform.io/hashicorp/random&quot;]</title>
<path fill="none" stroke="black" d="M1259.5,-71.7C1259.5,-63.98 1259.5,-54.71 1259.5,-46.11"/>
<polygon fill="black" stroke="black" points="1263,-46.1 1259.5,-36.1 1256,-46.1 1263,-46.1"/>
</g>
<!-- [root] meta.count&#45;boundary (EachMode fixup) -->
<g id="node20" class="node">
<title>[root] meta.count&#45;boundary (EachMode fixup)</title>
<ellipse fill="none" stroke="black" cx="965.5" cy="-450" rx="220.16" ry="18"/>
<text text-anchor="middle" x="965.5" y="-446.3" font-family="Times,serif" font-size="14.00">[root] meta.count&#45;boundary (EachMode fixup)</text>
</g>
<!-- [root] meta.count&#45;boundary (EachMode fixup)&#45;&gt;[root] azurerm_lb_rule.lbnatrule (expand) -->
<g id="edge22" class="edge">
<title>[root] meta.count&#45;boundary (EachMode fixup)&#45;&gt;[root] azurerm_lb_rule.lbnatrule (expand)</title>
<path fill="none" stroke="black" d="M905.95,-432.59C869.18,-422.46 821.79,-409.39 783,-398.7"/>
<polygon fill="black" stroke="black" points="783.9,-395.32 773.33,-396.04 782.04,-402.07 783.9,-395.32"/>
</g>
<!-- [root] meta.count&#45;boundary (EachMode fixup)&#45;&gt;[root] azurerm_virtual_machine_scale_set.vmss (expand) -->
<g id="edge23" class="edge">
<title>[root] meta.count&#45;boundary (EachMode fixup)&#45;&gt;[root] azurerm_virtual_machine_scale_set.vmss (expand)</title>
<path fill="none" stroke="black" d="M848.92,-434.71C760.63,-423.88 638.69,-408.94 543.35,-397.25"/>
<polygon fill="black" stroke="black" points="543.69,-393.76 533.34,-396.02 542.84,-400.71 543.69,-393.76"/>
</g>
<!-- [root] meta.count&#45;boundary (EachMode fixup)&#45;&gt;[root] output.vmss_public_ip -->
<g id="edge24" class="edge">
<title>[root] meta.count&#45;boundary (EachMode fixup)&#45;&gt;[root] output.vmss_public_ip</title>
<path fill="none" stroke="black" d="M965.5,-431.7C965.5,-423.98 965.5,-414.71 965.5,-406.11"/>
<polygon fill="black" stroke="black" points="969,-406.1 965.5,-396.1 962,-406.1 969,-406.1"/>
</g>
<!-- [root] provider[&quot;registry.terraform.io/hashicorp/azurerm&quot;] (close) -->
<g id="node21" class="node">
<title>[root] provider[&quot;registry.terraform.io/hashicorp/azurerm&quot;] (close)</title>
<ellipse fill="none" stroke="black" cx="394.5" cy="-450" rx="332.54" ry="18"/>
<text text-anchor="middle" x="394.5" y="-446.3" font-family="Times,serif" font-size="14.00">[root] provider[&quot;registry.terraform.io/hashicorp/azurerm&quot;] (close)</text>
</g>
<!-- [root] provider[&quot;registry.terraform.io/hashicorp/azurerm&quot;] (close)&#45;&gt;[root] azurerm_lb_rule.lbnatrule (expand) -->
<g id="edge26" class="edge">
<title>[root] provider[&quot;registry.terraform.io/hashicorp/azurerm&quot;] (close)&#45;&gt;[root] azurerm_lb_rule.lbnatrule (expand)</title>
<path fill="none" stroke="black" d="M469.62,-432.41C516.13,-422.14 576.02,-408.92 624.57,-398.2"/>
<polygon fill="black" stroke="black" points="625.43,-401.59 634.44,-396.02 623.92,-394.76 625.43,-401.59"/>
</g>
<!-- [root] provider[&quot;registry.terraform.io/hashicorp/azurerm&quot;] (close)&#45;&gt;[root] azurerm_virtual_machine_scale_set.vmss (expand) -->
<g id="edge27" class="edge">
<title>[root] provider[&quot;registry.terraform.io/hashicorp/azurerm&quot;] (close)&#45;&gt;[root] azurerm_virtual_machine_scale_set.vmss (expand)</title>
<path fill="none" stroke="black" d="M394.5,-431.7C394.5,-423.98 394.5,-414.71 394.5,-406.11"/>
<polygon fill="black" stroke="black" points="398,-406.1 394.5,-396.1 391,-406.1 398,-406.1"/>
</g>
<!-- [root] provider[&quot;registry.terraform.io/hashicorp/random&quot;] (close) -->
<g id="node22" class="node">
<title>[root] provider[&quot;registry.terraform.io/hashicorp/random&quot;] (close)</title>
<ellipse fill="none" stroke="black" cx="1255.5" cy="-162" rx="327.64" ry="18"/>
<text text-anchor="middle" x="1255.5" y="-158.3" font-family="Times,serif" font-size="14.00">[root] provider[&quot;registry.terraform.io/hashicorp/random&quot;] (close)</text>
</g>
<!-- [root] provider[&quot;registry.terraform.io/hashicorp/random&quot;] (close)&#45;&gt;[root] random_string.fqdn (expand) -->
<g id="edge28" class="edge">
<title>[root] provider[&quot;registry.terraform.io/hashicorp/random&quot;] (close)&#45;&gt;[root] random_string.fqdn (expand)</title>
<path fill="none" stroke="black" d="M1256.49,-143.7C1256.93,-135.98 1257.46,-126.71 1257.95,-118.11"/>
<polygon fill="black" stroke="black" points="1261.45,-118.29 1258.52,-108.1 1254.46,-117.89 1261.45,-118.29"/>
</g>
<!-- [root] root -->
<g id="node23" class="node">
<title>[root] root</title>
<ellipse fill="none" stroke="black" cx="965.5" cy="-522" rx="64.19" ry="18"/>
<text text-anchor="middle" x="965.5" y="-518.3" font-family="Times,serif" font-size="14.00">[root] root</text>
</g>
<!-- [root] root&#45;&gt;[root] meta.count&#45;boundary (EachMode fixup) -->
<g id="edge30" class="edge">
<title>[root] root&#45;&gt;[root] meta.count&#45;boundary (EachMode fixup)</title>
<path fill="none" stroke="black" d="M965.5,-503.7C965.5,-495.98 965.5,-486.71 965.5,-478.11"/>
<polygon fill="black" stroke="black" points="969,-478.1 965.5,-468.1 962,-478.1 969,-478.1"/>
</g>
<!-- [root] root&#45;&gt;[root] provider[&quot;registry.terraform.io/hashicorp/azurerm&quot;] (close) -->
<g id="edge31" class="edge">
<title>[root] root&#45;&gt;[root] provider[&quot;registry.terraform.io/hashicorp/azurerm&quot;] (close)</title>
<path fill="none" stroke="black" d="M907.87,-513.94C820.56,-503.23 652.23,-482.6 532.13,-467.87"/>
<polygon fill="black" stroke="black" points="532.47,-464.39 522.12,-466.64 531.62,-471.34 532.47,-464.39"/>
</g>
<!-- [root] root&#45;&gt;[root] provider[&quot;registry.terraform.io/hashicorp/random&quot;] (close) -->
<g id="edge32" class="edge">
<title>[root] root&#45;&gt;[root] provider[&quot;registry.terraform.io/hashicorp/random&quot;] (close)</title>
<path fill="none" stroke="black" d="M1029.6,-520.21C1079.22,-516.52 1147.21,-504.41 1194.5,-468 1229.94,-440.71 1241.5,-423.73 1241.5,-379 1241.5,-379 1241.5,-379 1241.5,-305 1241.5,-265.02 1247.06,-219.02 1251.18,-190.47"/>
<polygon fill="black" stroke="black" points="1254.66,-190.84 1252.67,-180.43 1247.74,-189.81 1254.66,-190.84"/>
</g>
</g>
</svg>
